<svg xmlns="http://www.w3.org/2000/svg" width="400.000" height="171.248" viewBox="0 0 48.149 20.613">
    <defs>
        <marker id="b" refX="0" refY="0" orient="auto" overflow="visible">
            <path d="M-10 0l-4 4L0 0l-14-4z" fill-rule="evenodd" stroke="#000" stroke-width="1.066"/>
        </marker>
        <marker orient="auto" refY="0" refX="0" id="a" overflow="visible">
            <path d="M-10 0l-4 4L0 0l-14-4z" fill-rule="evenodd" stroke="#000" stroke-width="1.066"/>
        </marker>
    </defs>
    <path d="M3.102 10.178l-.106-.212-.035-.247v-.035m.141.494l-.07.035h-.107m0 0l-.07-.106" fill="none" stroke="#000" stroke-width=".18" stroke-linecap="round" stroke-linejoin="round" stroke-miterlimit="10"/>
    <path d="M2.96 10.213l-.14-.176-.071-.353.07-.353.212-.317.318-.212.352-.07.388.07.283.212.211.317.07.353-.07.353-.211.317-.212.177-.247.07m-.988-.353h0v-.035" fill="none" stroke="#000" stroke-width=".18" stroke-linecap="round" stroke-linejoin="round" stroke-miterlimit="10"/>
    <path d="M3.102 10.178l.247.211.317.07.318-.034.247-.177.176-.247.07-.317-.07-.318-.176-.247-.247-.176-.318-.035-.317.07-.247.212" fill="none" stroke="#000" stroke-width=".18" stroke-linecap="round" stroke-linejoin="round" stroke-miterlimit="10"/>
    <path d="M2.925 10.248l.247.212.318.106.282.035.317-.106.247-.176.142-.247.07-.282v-.318l-.141-.247-.176-.212-.283-.105-.247-.036-.282.07-.211.142-.106.106m-.142.494l.036-.247.106-.247m41.945 0l.106.212.035.246v.036m-.141-.494l.07-.035h.106m0 0l.07.105" fill="none" stroke="#000" stroke-width=".18" stroke-linecap="round" stroke-linejoin="round" stroke-miterlimit="10"/>
    <path d="M44.13 8.802l.317-.07.353.07.318.211.211.318.07.353-.07.353-.211.317-.318.212-.353.07-.353-.07-.317-.212-.212-.317-.07-.353.07-.353.212-.318.212-.176.282-.07m.952.353h0v.035" fill="none" stroke="#000" stroke-width=".18" stroke-linecap="round" stroke-linejoin="round" stroke-miterlimit="10"/>
    <path d="M45.047 9.19l-.247-.212-.317-.07-.318.035-.247.176-.176.247-.07.318.07.317.176.247.247.177.318.035.317-.07.247-.212" fill="none" stroke="#000" stroke-width=".18" stroke-linecap="round" stroke-linejoin="round" stroke-miterlimit="10"/>
    <path d="M45.223 9.12l-.247-.212-.317-.106-.282-.035-.318.106-.247.176-.14.247-.071.282v.318l.14.247.212.211.247.106.283.035.246-.07.247-.141.071-.106" fill="none" stroke="#000" stroke-width=".18" stroke-linecap="round" stroke-linejoin="round" stroke-miterlimit="10"/>
    <path d="M45.188 9.684l-.035.247-.106.247M6.912 5.91l-.141.034-.142.036-.105.07-.106.106-.106.141-.035.106-.036.177v.14m0 0L7.3 12.613m0-.001l.035.176.07.142.106.176.142.106.14.106.142.07.176.035.177.036m0 0H39.79m0 0l.177-.036.176-.035.141-.07.142-.106.14-.106.107-.176.07-.142.035-.176m0 0l1.059-5.891m0-.001v-.14l-.036-.177-.035-.106-.07-.14-.106-.107-.141-.07-.141-.036-.142-.035m0 .001H6.912m34.219 6.772l1.023-5.926m-2.364 7.02h.248l.211-.07.212-.106.212-.141.14-.142.142-.211.106-.212.07-.212M8.288 13.776H39.79M6.947 12.682l.07.212.106.212.141.211.177.142.176.14.212.107.247.07h.212m-2.364-7.02l1.023 5.926" fill="none" stroke="#000" stroke-width=".18" stroke-linecap="round" stroke-linejoin="round" stroke-miterlimit="10"/>
    <path d="M6.912 5.592H6.7l-.212.07-.176.141-.176.141-.106.177-.07.211-.036.212v.212m35.242-1.164H6.912m35.242 1.164l.035-.212-.035-.212-.106-.211-.105-.177-.177-.14-.176-.142-.212-.07h-.212m-30.515 6.173l-.035-.14-.07-.107-.107-.07h-.246l-.106.07-.07.106-.036.141.035.141.07.106.107.07h.246l.106-.07.07-.106.036-.14m1.517-.001v-.14l-.07-.107-.106-.07h-.283l-.105.07-.07.106v.282l.07.106.105.07h.282l.107-.07.07-.106v-.14M9.91 10.39l-.035-.142-.07-.106-.106-.07-.141-.035-.106.035-.106.07-.07.106-.036.141.035.106.07.106.107.07.106.036.14-.035.106-.07.071-.107.035-.106m5.327 1.376l-.035-.14-.07-.107-.106-.07h-.247l-.106.07-.07.106-.036.141.035.141.07.106.107.07h.247l.105-.07.071-.106.035-.14m-3.81-1.376l-.035-.142-.07-.106-.106-.07-.142-.035-.105.035-.106.07-.07.106-.036.141.035.106.07.106.107.07.105.036.142-.035.105-.07.071-.107.035-.106m-.776-1.411l-.035-.106-.07-.105-.107-.07-.105-.036-.141.035-.106.07-.07.106-.036.106.035.141.07.106.107.07.14.036.106-.035.106-.07.07-.107.036-.14m6.103 2.786l-.035-.14-.07-.107-.106-.07h-.247l-.106.07-.07.106-.036.141.035.141.07.106.107.07h.247l.105-.07.07-.106.036-.14m-3.034-.001l-.035-.14-.07-.107-.106-.07h-.247l-.106.07-.07.106-.036.141.035.141.07.106.107.07h.246l.106-.07.071-.106.035-.14m-1.552-2.788v-.106l-.07-.105-.106-.07-.141-.036-.142.035-.105.07-.07.106v.247l.07.106.105.07.142.036.14-.035.107-.07.07-.107v-.14m3.069-.001l-.035-.106-.07-.105-.106-.07-.142-.036-.105.035-.106.07-.07.106-.036.106.035.141.07.106.107.07.105.036.142-.035.105-.07.071-.107.035-.14m1.517-.001l-.035-.106-.07-.105-.106-.07-.106-.036-.141.035-.106.07-.07.106-.036.106.035.141.07.106.107.07.14.036.107-.035.105-.07.07-.107.036-.14m3.034 2.786v-.14l-.07-.107-.106-.07h-.283l-.105.07-.07.106v.282l.07.106.105.07h.282l.107-.07.07-.106v-.14m-8.361-4.164l-.035-.14-.07-.106-.106-.071h-.247l-.106.07-.07.106-.036.141.035.142.07.105.107.07h.247l.105-.07.071-.105.035-.142m4.551 2.788v-.142l-.07-.106-.106-.07-.141-.035-.142.035-.105.07-.07.106v.247l.07.106.105.07.142.036.14-.035.107-.07.07-.107v-.106m2.293 1.376l-.035-.14-.07-.107-.107-.07h-.246l-.106.07-.07.106-.036.141.035.141.07.106.107.07h.246l.106-.07.07-.106.036-.14M13.72 8.978l-.035-.106-.07-.105-.106-.07-.141-.036-.106.035-.106.07-.07.106-.036.106.035.141.07.106.107.07.106.036.14-.035.106-.07.071-.107.035-.14m.741 1.411l-.035-.142-.07-.106-.107-.07-.105-.035-.141.035-.106.07-.07.106-.036.141.035.106.07.106.107.07.14.036.106-.035.106-.07.07-.107.036-.106m6.879 1.376l-.035-.14-.07-.107-.106-.07h-.247l-.106.07-.07.106-.036.141.035.141.07.106.107.07h.246l.106-.07.071-.106.035-.14M9.91 7.602l-.035-.14-.07-.106-.106-.071h-.247l-.106.07-.07.106-.036.141.035.142.07.105.107.07h.246l.106-.07.071-.105.035-.142m3.034 2.788l-.035-.142-.07-.106-.106-.07-.106-.035-.141.035-.106.07-.07.106-.036.141.035.106.07.106.107.07.14.036.107-.035.105-.07.07-.107.036-.106m1.517-2.787l-.035-.14-.07-.106-.107-.071h-.246l-.106.07-.07.106-.036.141.035.142.07.105.107.07h.246l.106-.07.07-.105.036-.142m7.62 2.788l-.035-.142-.07-.106-.107-.07-.105-.035-.141.035-.106.07-.07.106-.036.141.035.106.07.106.107.07.14.036.106-.035.106-.07.07-.107.036-.106m.776 1.376l-.035-.14-.07-.107-.106-.07h-.247l-.106.07-.07.106-.036.141.035.141.07.106.107.07h.247l.105-.07.071-.106.035-.14m-3.81-1.376l-.035-.142-.07-.106-.106-.07-.142-.035-.105.035-.106.07-.07.106-.036.141.035.106.07.106.107.07.105.036.142-.035.105-.07.071-.107.035-.106m-1.517.001l-.035-.142-.07-.106-.106-.07-.141-.035-.106.035-.106.07-.07.106-.036.141.035.106.07.106.107.07.106.036.14-.035.106-.07.071-.107.035-.106m3.034.001l-.035-.142-.07-.106-.106-.07-.106-.035-.141.035-.106.07-.07.106-.036.141.035.106.07.106.107.07.14.036.107-.035.105-.07.07-.107.036-.106m-4.586-2.787v-.14l-.07-.106-.106-.071h-.283l-.105.07-.07.106v.283l.07.105.105.07h.282l.107-.07.07-.105v-.142m-3.034 0l-.035-.14-.07-.106-.106-.071h-.247l-.106.07-.07.106-.036.141.035.142.07.105.107.07h.247l.105-.07.07-.105.036-.142m8.396 1.376l-.035-.106-.07-.105-.106-.07-.141-.036-.106.035-.106.07-.07.106-.036.106.035.141.07.106.107.07.106.036.14-.035.106-.07.071-.107.035-.14m4.551 2.786l-.035-.14-.07-.107-.107-.07h-.246l-.106.07-.07.106-.036.141.035.141.07.106.107.07h.246l.106-.07.07-.106.036-.14m-1.517-.001l-.035-.14-.07-.107-.106-.07h-.247l-.106.07-.07.106-.036.141.035.141.07.106.107.07h.247l.105-.07.07-.106.036-.14m-6.103-2.788l-.035-.106-.07-.105-.107-.07-.105-.036-.141.035-.106.07-.07.106-.036.106.035.141.07.106.107.07.14.036.106-.035.106-.07.07-.107.036-.14m1.517-.001v-.106l-.07-.105-.106-.07-.141-.036-.142.035-.105.07-.07.106v.247l.07.106.105.07.142.036.14-.035.107-.07.07-.107v-.14m9.172 2.786l-.035-.14-.07-.107-.106-.07h-.247l-.106.07-.07.106-.036.141.035.141.07.106.107.07h.246l.106-.07.071-.106.035-.14m-3.81-1.376l-.035-.142-.07-.106-.106-.07-.141-.035-.106.035-.106.07-.07.106-.036.141.035.106.07.106.107.07.106.036.14-.035.106-.07.071-.107.035-.106m-1.552.001v-.142l-.07-.106-.106-.07-.141-.035-.142.035-.105.07-.07.106v.247l.07.106.105.07.142.036.14-.035.107-.07.07-.107v-.106m2.293-1.411l-.035-.106-.07-.105-.107-.07-.105-.036-.141.035-.106.07-.07.106-.036.106.035.141.07.106.107.07.14.036.106-.035.106-.07.07-.107.036-.14m4.586 2.786l-.035-.14-.07-.107-.106-.07h-.247l-.106.07-.07.106-.036.141.035.141.07.106.107.07h.247l.105-.07.071-.106.035-.14m-11.43-4.164l-.035-.14-.07-.106-.106-.071h-.247l-.106.07-.07.106-.036.141.035.142.07.105.107.07h.247l.105-.07.071-.105.035-.142m1.517 0l-.035-.14-.07-.106-.106-.071h-.247l-.106.07-.07.106-.036.141.035.142.07.105.107.07h.247l.105-.07.07-.105.036-.142m1.517 0l-.035-.14-.07-.106-.107-.071h-.246l-.106.07-.07.106-.036.141.035.142.07.105.107.07h.246l.106-.07.07-.105.036-.142m9.913 4.163l-.035-.14-.07-.107-.106-.07h-.247l-.106.07-.07.106-.036.141.035.141.07.106.107.07h.247l.105-.07.07-.106.036-.14m-4.586-.001v-.14l-.07-.107-.106-.07h-.283l-.105.07-.07.106v.282l.07.106.105.07h.282l.107-.07.07-.106v-.14M17.53 7.602l-.035-.14-.07-.106-.106-.071h-.247l-.106.07-.07.106-.036.141.035.142.07.105.107.07h.246l.106-.07.071-.105.035-.142m9.137 2.788l-.035-.142-.07-.106-.106-.07-.142-.035-.105.035-.106.07-.07.106-.036.141.035.106.07.106.107.07.105.036.142-.035.105-.07.071-.107.035-.106m-3.81-1.411l-.035-.106-.07-.105-.106-.07-.142-.036-.105.035-.106.07-.07.106-.036.106.035.141.07.106.107.07.105.036.142-.035.105-.07.071-.107.035-.14m1.517-.001l-.035-.106-.07-.105-.106-.07-.106-.036-.141.035-.106.07-.07.106-.036.106.035.141.07.106.107.07.14.036.107-.035.105-.07.07-.107.036-.14m9.137 2.786l-.035-.14-.07-.107-.107-.07h-.246l-.106.07-.07.106-.036.141.035.141.07.106.107.07h.246l.106-.07.07-.106.036-.14m-6.103-2.788v-.106l-.07-.105-.106-.07-.141-.036-.142.035-.105.07-.07.106v.247l.07.106.105.07.142.036.14-.035.107-.07.07-.107v-.14m2.293 1.411l-.035-.142-.07-.106-.107-.07-.105-.035-.141.035-.106.07-.07.106-.036.141.035.106.07.106.107.07.14.036.106-.035.106-.07.07-.107.036-.106m-1.517.001l-.035-.142-.07-.106-.106-.07-.106-.035-.141.035-.106.07-.07.106-.036.141.035.106.07.106.107.07.14.036.107-.035.105-.07.07-.107.036-.106m-4.586-2.787v-.14l-.07-.106-.106-.071h-.283l-.105.07-.07.106v.283l.07.105.105.07h.282l.107-.07.07-.105v-.142m6.879 1.376l-.035-.106-.07-.105-.106-.07-.142-.036-.105.035-.106.07-.07.106-.036.106.035.141.07.106.107.07.105.036.142-.035.105-.07.071-.107.035-.14M25.15 7.602l-.035-.14-.07-.106-.106-.071h-.247l-.106.07-.07.106-.036.141.035.142.07.105.107.07h.246l.106-.07.071-.105.035-.142m1.517 0l-.035-.14-.07-.106-.106-.071h-.247l-.106.07-.07.106-.036.141.035.142.07.105.107.07h.247l.105-.07.071-.105.035-.142m5.327 1.376l-.035-.106-.07-.105-.106-.07-.106-.036-.141.035-.106.07-.07.106-.036.106.035.141.07.106.107.07.14.036.107-.035.105-.07.07-.107.036-.14m3.034 2.786v-.14l-.07-.107-.106-.07h-.283l-.105.07-.07.106v.282l.07.106.105.07h.282l.107-.07.07-.106v-.14M28.96 8.978l-.035-.106-.07-.105-.106-.07-.141-.036-.106.035-.106.07-.07.106-.036.106.035.141.07.106.107.07.106.036.14-.035.106-.07.071-.107.035-.14m7.62 2.786l-.035-.14-.07-.107-.106-.07h-.247l-.106.07-.07.106-.036.141.035.141.07.106.107.07h.246l.106-.07.071-.106.035-.14m-5.362-1.376v-.142l-.07-.106-.106-.07-.141-.035-.142.035-.105.07-.07.106v.247l.07.106.105.07.142.036.14-.035.107-.07.07-.107v-.106m6.879 1.376l-.035-.14-.07-.107-.106-.07h-.247l-.106.07-.07.106-.036.141.035.141.07.106.107.07h.247l.105-.07.071-.106.035-.14m-8.396-4.164l-.035-.14-.07-.106-.107-.071h-.246l-.106.07-.07.106-.036.141.035.142.07.105.107.07h.246l.106-.07.07-.105.036-.142m6.103 2.788l-.035-.142-.07-.106-.106-.07-.106-.035-.141.035-.106.07-.07.106-.036.141.035.106.07.106.107.07.14.036.107-.035.105-.07.07-.107.036-.106m-2.293-1.411l-.035-.106-.07-.105-.107-.07-.105-.036-.141.035-.106.07-.07.106-.036.106.035.141.07.106.107.07.14.036.106-.035.106-.07.07-.107.036-.14m-2.293-1.377v-.14l-.07-.106-.106-.071h-.283l-.105.07-.07.106v.283l.07.105.105.07h.282l.107-.07.07-.105v-.142m3.81 1.376v-.106l-.07-.105-.106-.07-.141-.036-.142.035-.105.07-.07.106v.247l.07.106.105.07.142.036.14-.035.107-.07.07-.107v-.14M32.77 10.39l-.035-.142-.07-.106-.106-.07-.141-.035-.106.035-.106.07-.07.106-.036.141.035.106.07.106.107.07.106.036.14-.035.106-.07.071-.107.035-.106m-4.586-2.787l-.035-.14-.07-.106-.106-.071h-.247l-.106.07-.07.106-.036.141.035.142.07.105.107.07h.247l.105-.07.07-.105.036-.142m8.396 1.376l-.035-.106-.07-.105-.106-.07-.141-.036-.106.035-.106.07-.07.106-.036.106.035.141.07.106.107.07.106.036.14-.035.106-.07.071-.107.035-.14m-2.293 1.411l-.035-.142-.07-.106-.106-.07-.142-.035-.105.035-.106.07-.07.106-.036.141.035.106.07.106.107.07.105.036.142-.035.105-.07.071-.107.035-.106m4.551.001v-.142l-.07-.106-.106-.07-.141-.035-.142.035-.105.07-.07.106v.247l.07.106.105.07.142.036.14-.035.107-.07.07-.107v-.106m-3.034-2.787l-.035-.14-.07-.106-.106-.071h-.247l-.106.07-.07.106-.036.141.035.142.07.105.107.07h.247l.105-.07.07-.105.036-.142m-1.517 0l-.035-.14-.07-.106-.106-.071h-.247l-.106.07-.07.106-.036.141.035.142.07.105.107.07h.247l.105-.07.071-.105.035-.142m-1.517 0l-.035-.14-.07-.106-.106-.071h-.247l-.106.07-.07.106-.036.141.035.142.07.105.107.07h.246l.106-.07.071-.105.035-.142m5.327 1.376l-.035-.106-.07-.105-.106-.07-.142-.036-.105.035-.106.07-.07.106-.036.106.035.141.07.106.107.07.105.036.142-.035.105-.07.071-.107.035-.14m-.776 1.411l-.035-.142-.07-.106-.107-.07-.105-.035-.141.035-.106.07-.07.106-.036.141.035.106.07.106.107.07.14.036.106-.035.106-.07.07-.107.036-.106m0-2.787l-.035-.14-.07-.106-.107-.071h-.246l-.106.07-.07.106-.036.141.035.142.07.105.107.07h.246l.106-.07.07-.105.036-.142m1.517 0v-.14l-.07-.106-.106-.071h-.283l-.105.07-.07.106v.283l.07.105.105.07h.282l.107-.07.07-.105v-.142m6.632 2.082l-.07-.388-.247-.318-.318-.247-.388-.07-.388.07-.317.247-.247.318-.07.388.07.388.247.317.317.247.388.071.388-.07.318-.248.247-.317.07-.388m.918 4.092V5.592M45.364 14.8h.212l.177-.071.176-.106.176-.106.106-.176.106-.177.07-.176v-.212M2.714 14.8h42.65M1.69 13.776l.036.212.035.176.106.177.106.176.176.106.177.106.176.07h.212m0-10.23h-.212l-.176.07-.177.106-.176.106-.106.176-.106.177-.035.176-.035.212m43.673-1.023H2.714m43.674 1.023V5.38l-.071-.176-.106-.177-.106-.176-.176-.106-.176-.106-.177-.07h-.212M4.583 9.331v-.035l-.211-.318-.353-.247-.388-.07-.388.07-.318.247-.211.318-.106.388.106.388.211.317.318.247.388.07.388-.07.353-.247.176-.282M1.69 5.592v8.184m-.6 1.024l.671.67M1.09 4.569v10.23m.671-10.901l-.67.67m.67-.67h4.057m36.512 0H5.819m36.511 0h4.058m.67.671l-.67-.67m.67.67v10.23m-.67.671l.67-.67m-4.728.67h4.058m-4.058 0H5.819m-4.058 0h4.057" fill="none" stroke="#000" stroke-width=".18" stroke-linecap="round" stroke-linejoin="round" stroke-miterlimit="10"/>
    <path d="M1.761 14.305v.106l.035.07.071.106.035.071.106.07.07.036.106.035h.106m0 .001h43.604m0 0h.07l.106-.036.106-.035.07-.07.071-.072.035-.105.036-.07v-.107m0 0V5.062m0 0v-.105l-.036-.071-.035-.106-.07-.07-.071-.07-.106-.036-.106-.036h-.07m0 0H2.29m0 0h-.106l-.105.036-.07.035-.107.07-.035.071-.07.106-.036.07v.106m0 0v9.243" fill="none" stroke="#000" stroke-width=".18" stroke-linecap="round" stroke-linejoin="round" stroke-miterlimit="10"/>
    <text y="97.067" x="61.664" style="line-height:125%" font-weight="400" font-size="10.583" font-family="sans-serif" letter-spacing="0" word-spacing="0" stroke-width=".265" transform="translate(-23.507 -94.782)">
        <tspan y="97.067" x="61.664" font-size="1.764">1</tspan>
    </text>
    <text y="114.367" x="32.306" style="line-height:125%" font-weight="400" font-size="10.583" font-family="sans-serif" letter-spacing="0" word-spacing="0" stroke-width=".265" transform="translate(-23.507 -94.782)">
        <tspan y="114.367" x="32.306" font-size="1.94">78</tspan>
    </text>
    <path d="M33.683 111.877l.017-5.013" fill="none" stroke="#000" stroke-width=".05" marker-end="url(#a)" transform="translate(-23.507 -94.782)"/>
    <path d="M62.254 97.395l-.085 4.671" fill="none" stroke="#000" stroke-width=".05" marker-end="url(#b)" transform="translate(-23.507 -94.782)"/>
</svg>
