<svg xmlns="http://www.w3.org/2000/svg" width="400" height="200" viewBox="0 0 15.24 9"><path stroke-width=".05" fill="#fff" stroke="#000" d="M0 .2h15.24V9H0z"/><path stroke-width=".05" fill="#fff" stroke="#000" d="M1.1 1.3h13.04v6.6H1.1z"/><path stroke-width=".05" fill="#fff" stroke="#000" d="M1.2 1.4h12.84v6.4H1.2zM5.08.2h5.08v1.2H5.08z"/><text x="4.76" y="2.5" style="line-height:100%" font-weight="300" font-size=".8" font-family="Roboto,sans-serif" letter-spacing="0" word-spacing="0" stroke-width=".01">5</text><path stroke-width=".05" fill="#fff" stroke="#000" d="M4.76 3.01h.64v.64h-.64z"/><path stroke-width=".03" fill="#fff" stroke="#000" d="M4.86 3.11h.44v.44h-.44z"/><text x="7.3" y="2.5" style="line-height:100%" font-weight="300" font-size=".8" font-family="Roboto,sans-serif" letter-spacing="0" word-spacing="0" stroke-width=".01">3</text><path stroke-width=".05" fill="#fff" stroke="#000" d="M7.3 3.01h.64v.64H7.3z"/><path stroke-width=".03" fill="#fff" stroke="#000" d="M7.4 3.11h.44v.44H7.4z"/><text x="9.84" y="2.5" style="line-height:100%" font-weight="300" font-size=".8" font-family="Roboto,sans-serif" letter-spacing="0" word-spacing="0" stroke-width=".01">1</text><path stroke-width=".05" fill="#fff" stroke="#000" d="M9.84 3.01h.64v.64h-.64z"/><path stroke-width=".03" fill="#fff" stroke="#000" d="M9.94 3.11h.44v.44h-.44z"/><text x="4.76" y="7.5" style="line-height:100%" font-weight="300" font-size=".8" font-family="Roboto,sans-serif" letter-spacing="0" word-spacing="0" stroke-width=".01">6</text><path stroke-width=".05" fill="#fff" stroke="#000" d="M4.76 5.55h.64v.64h-.64z"/><path stroke-width=".03" fill="#fff" stroke="#000" d="M4.86 5.65h.44v.44h-.44z"/><text x="7.3" y="7.5" style="line-height:100%" font-weight="300" font-size=".8" font-family="Roboto,sans-serif" letter-spacing="0" word-spacing="0" stroke-width=".01">4</text><path stroke-width=".05" fill="#fff" stroke="#000" d="M7.3 5.55h.64v.64H7.3z"/><path stroke-width=".03" fill="#fff" stroke="#000" d="M7.4 5.65h.44v.44H7.4z"/><text x="9.84" y="7.5" style="line-height:100%" font-weight="300" font-size=".8" font-family="Roboto,sans-serif" letter-spacing="0" word-spacing="0" stroke-width=".01">2</text><path stroke-width=".05" fill="#fff" stroke="#000" d="M9.84 5.55h.64v.64h-.64z"/><path stroke-width=".03" fill="#fff" stroke="#000" d="M9.94 5.65h.44v.44h-.44z"/></svg>