<svg xmlns="http://www.w3.org/2000/svg" viewBox="-43 46 1443.5 474.5" width="1443.5" height="474.5">
    <g fill="none">
        <path fill="#fff" d="M-43 46h1443.5v474.5H-43z"/>
        <path d="M630 249H309c-6.627 0-12 5.373-12 12v57c0 6.627 5.373 12 12 12h321c6.627 0 12-5.373 12-12v-57c0-6.627-5.373-12-12-12z" fill="#c0c0ff"/>
        <path d="M630 249H309c-6.627 0-12 5.373-12 12v57c0 6.627 5.373 12 12 12h321c6.627 0 12-5.373 12-12v-57c0-6.627-5.373-12-12-12z" stroke="#000" stroke-linecap="round" stroke-linejoin="round"/>
        <text transform="translate(302 277.5)" fill="#000">
            <tspan font-family="Roboto" font-size="20" font-weight="400" x="111.934" y="19">Switchboard</tspan>
        </text>
        <path d="M194.5 238H117c-6.627 0-12 5.373-12 12v73c0 6.627 5.373 12 12 12h77.5c6.627 0 12-5.373 12-12v-73c0-6.627-5.373-12-12-12z" fill="#c0c0ff"/>
        <path d="M194.5 238H117c-6.627 0-12 5.373-12 12v73c0 6.627 5.373 12 12 12h77.5c6.627 0 12-5.373 12-12v-73c0-6.627-5.373-12-12-12z" stroke="#000" stroke-linecap="round" stroke-linejoin="round"/>
        <text transform="translate(110 262.5)" fill="#000">
            <tspan font-family="Roboto" font-size="20" font-weight="400" x="18.396" y="19">Signal </tspan> <tspan font-family="Roboto" font-size="20" font-weight="400" x="16.614" y="43">Relays</tspan>
        </text>
        <path d="M242.762 296.916v134.591H223.75l28 38.493 28-38.493h-19.012V296.916h13.278v12.276L297 290.096 274.016 271v12.276h-44.532V271L206.5 290.096l22.984 19.096v-12.276z" fill="#ffffc0"/>
        <path d="M242.762 296.916v134.591H223.75l28 38.493 28-38.493h-19.012V296.916h13.278v12.276L297 290.096 274.016 271v12.276h-44.532V271L206.5 290.096l22.984 19.096v-12.276z" stroke="#000" stroke-linecap="round" stroke-linejoin="round"/>
        <text transform="rotate(90 -7.375 268.625)" fill="#000">
            <tspan font-family="Roboto" font-size="16" font-weight="400" x="64.117" y="15">MUX0..3</tspan>
        </text>
        <path d="M406.625 46.5l29.625 48.105h-16.266v104.29h16.266L406.625 247 377 198.895h16.266V94.605H377z" fill="#ffffc0"/>
        <path d="M406.625 46.5l29.625 48.105h-16.266v104.29h16.266L406.625 247 377 198.895h16.266V94.605H377z" stroke="#000" stroke-linecap="round" stroke-linejoin="round"/>
        <text transform="rotate(90 182.313 233.813)" fill="#000">
            <tspan font-family="Roboto" font-size="16" font-weight="400" x="53.375" y="15">DATP00..06</tspan>
        </text>
        <path d="M472.375 46.5L502 94.605h-16.266v104.29H502L472.375 247l-29.625-48.105h16.266V94.605H442.75z" fill="#ffffc0"/>
        <path d="M472.375 46.5L502 94.605h-16.266v104.29H502L472.375 247l-29.625-48.105h16.266V94.605H442.75z" stroke="#000" stroke-linecap="round" stroke-linejoin="round"/>
        <text transform="rotate(90 215.188 266.688)" fill="#000">
            <tspan font-family="Roboto" font-size="16" font-weight="400" x="53.609" y="15">RATP00..15</tspan>
        </text>
        <path d="M616.003 191.234h40.674v227.367H644.34L669.67 470 695 418.601h-12.338v-264.06h-66.659V95.53h13.908L604.58 46.5 579.25 95.532h13.908v106.297H579.25l25.33 49.031 25.33-49.031h-13.907z" fill="#ffc0ff"/>
        <path d="M616.003 191.234h40.674v227.367H644.34L669.67 470 695 418.601h-12.338v-264.06H670.99h0-54.987V95.53h13.908L604.58 46.5 579.25 95.532h13.908v106.297H579.25l25.33 49.031 25.33-49.031h-13.907z" stroke="#000" stroke-linecap="round" stroke-linejoin="round"/>
        <text transform="translate(584.25 164.05)" fill="#000">
            <tspan font-family="Roboto" font-size="16" font-weight="400" x="10.488" y="15">DDTP00..08</tspan>
        </text>
        <path d="M538.125 46.5l29.625 48.105h-16.266v104.29h16.266L538.125 247 508.5 198.895h16.266V94.605H508.5z" fill="#ffffc0"/>
        <path d="M538.125 46.5l29.625 48.105h-16.266v104.29h16.266L538.125 247 508.5 198.895h16.266V94.605H508.5z" stroke="#000" stroke-linecap="round" stroke-linejoin="round"/>
        <text transform="rotate(90 248.062 299.563)" fill="#000">
            <tspan font-family="Roboto" font-size="16" font-weight="400" x="53.613" y="15">RATP16..31</tspan>
        </text>
        <path d="M499.61 331.734l-17.863 34.81a1 1 0 0 0 .89 1.456h7.113a1 1 0 0 1 1 1v67a1 1 0 0 1-1 1h-7.113a1 1 0 0 0-.89 1.457l17.863 34.81a1 1 0 0 0 1.78 0l17.863-34.81a1 1 0 0 0-.89-1.457h-7.113a1 1 0 0 1-1-1v-67a1 1 0 0 1 1-1h7.113a1 1 0 0 0 .89-1.457l-17.863-34.81a1 1 0 0 0-1.78 0z" fill="#ffffc0"/>
        <path d="M499.61 331.734l-17.863 34.81a1 1 0 0 0 .89 1.456h7.113a1 1 0 0 1 1 1v67a1 1 0 0 1-1 1h-7.113a1 1 0 0 0-.89 1.457l17.863 34.81a1 1 0 0 0 1.78 0l17.863-34.81a1 1 0 0 0-.89-1.457h-7.113a1 1 0 0 1-1-1v-67a1 1 0 0 1 1-1h7.113a1 1 0 0 0 .89-1.457l-17.863-34.81a1 1 0 0 0-1.78 0z" stroke="#000" stroke-linecap="round" stroke-linejoin="round"/>
        <text transform="rotate(90 87.5 422.5)" fill="#000">
            <tspan font-family="Roboto" font-size="16" font-weight="400" x="30.223" y="15">RA/RVREF</tspan>
        </text>
        <path d="M283 474.25h-61c-6.627 0-12 5.373-12 12V508c0 6.627 5.373 12 12 12h61c6.627 0 12-5.373 12-12v-21.75c0-6.627-5.373-12-12-12z" fill="#40ffff"/>
        <path d="M283 474.25h-61c-6.627 0-12 5.373-12 12V508c0 6.627 5.373 12 12 12h61c6.627 0 12-5.373 12-12v-21.75c0-6.627-5.373-12-12-12z" stroke="#000" stroke-linecap="round" stroke-linejoin="round"/>
        <text transform="translate(215 487.625)" fill="#000">
            <tspan font-family="Roboto" font-size="16" font-weight="400" x="10.395" y="15">Voltage</tspan>
        </text>
        <path d="M539.5 474.25h-74c-6.627 0-12 5.373-12 12V508c0 6.627 5.373 12 12 12h74c6.627 0 12-5.373 12-12v-21.75c0-6.627-5.373-12-12-12z" fill="#0ff"/>
        <path d="M539.5 474.25h-74c-6.627 0-12 5.373-12 12V508c0 6.627 5.373 12 12 12h74c6.627 0 12-5.373 12-12v-21.75c0-6.627-5.373-12-12-12z" stroke="#000" stroke-linecap="round" stroke-linejoin="round"/>
        <text transform="translate(458.5 487.625)" fill="#000">
            <tspan font-family="Roboto" font-size="16" font-weight="400" x="4.383" y="15">Impedance</tspan>
        </text>
        <path d="M53 474.25h-66c-6.627 0-12 5.373-12 12V508c0 6.627 5.373 12 12 12h66c6.627 0 12-5.373 12-12v-21.75c0-6.627-5.373-12-12-12z" fill="#0ff"/>
        <path d="M53 474.25h-66c-6.627 0-12 5.373-12 12V508c0 6.627 5.373 12 12 12h66c6.627 0 12-5.373 12-12v-21.75c0-6.627-5.373-12-12-12z" stroke="#000" stroke-linecap="round" stroke-linejoin="round"/>
        <text transform="translate(-20 487.625)" fill="#000">
            <tspan font-family="Roboto" font-size="16" font-weight="400" x="13.777" y="15">Current</tspan>
        </text>
        <path d="M15.5 336H24a1 1 0 0 1 1 1v97a1 1 0 0 0 1 1h16.705a1 1 0 0 1 .85 1.526l-22.955 37.1a1 1 0 0 1-1.7 0l-22.956-37.1a1 1 0 0 1 .85-1.526H13.5a1 1 0 0 0 1-1v-97a1 1 0 0 1 1-1z" fill="#ffc0c0"/>
        <path d="M15.5 336H24a1 1 0 0 1 1 1v97a1 1 0 0 0 1 1h16.705a1 1 0 0 1 .85 1.526l-22.955 37.1a1 1 0 0 1-1.7 0l-22.956-37.1a1 1 0 0 1 .85-1.526H13.5a1 1 0 0 0 1-1v-97a1 1 0 0 1 1-1z" stroke="#000" stroke-linecap="round" stroke-linejoin="round"/>
        <path d="M68 238h-98.5c-6.627 0-12 5.373-12 12v73c0 6.627 5.373 12 12 12H68c6.627 0 12-5.373 12-12v-73c0-6.627-5.373-12-12-12z" fill="#ff8080"/>
        <path d="M68 238h-98.5c-6.627 0-12 5.373-12 12v73c0 6.627 5.373 12 12 12H68c6.627 0 12-5.373 12-12v-73c0-6.627-5.373-12-12-12 0 0 0 0 0 0z" stroke="#000" stroke-linecap="round" stroke-linejoin="round"/>
        <text transform="translate(-37.5 274.5)" fill="#000">
            <tspan font-family="Roboto" font-size="20" font-weight="400" x="28.105" y="19">Power</tspan>
        </text>
        <g>
            <path d="M26.971 179.495h300.764v35.979c0 .581-.221 1.053-.495 1.053h-4.731c-.274 0-.495.471-.495 1.052 0 .235.037.462.104.647l11.226 30.739c.168.459.479.541.694.184.033-.053.062-.115.087-.184l11.226-30.74c.168-.458.13-1.12-.086-1.477-.087-.143-.194-.221-.304-.221h-4.732c-.273 0-.494-.472-.494-1.053v-35.979h.057V151.07H26.972v-38.953h7.323L19.648 50 5 112.116h7.324v122.652H26.97z" fill="#ffc0c0"/>
            <path d="M26.971 179.495h300.764v35.979c0 .581-.221 1.053-.495 1.053h-4.731c-.274 0-.495.471-.495 1.052 0 .235.037.462.104.647l11.226 30.739c.168.459.479.541.694.184.033-.053.062-.115.087-.184l11.226-30.74c.168-.458.13-1.12-.086-1.477-.087-.143-.194-.221-.304-.221h-4.732c-.273 0-.494-.472-.494-1.053v-35.979h.057V151.07H26.972v-38.953h7.323L19.648 50 5 112.116h7.324v122.652H26.97z" stroke="#000" stroke-linecap="round" stroke-linejoin="round"/>
            <text transform="translate(10 154.142)" fill="#000">
                <tspan font-family="Roboto" font-size="16" font-weight="400" x="98.021" y="15">3V3, 5V, VARV/12V</tspan>
            </text>
        </g>
        <g>
            <path d="M1086.688 50h20.25v370h15l-25.126 50-25.124-50h15z" fill="#ffffc0"/>
            <path d="M1086.688 50h20.25v370h15l-25.126 50-25.124-50h15z" stroke="#000" stroke-linecap="round" stroke-linejoin="round"/>
            <text transform="rotate(90 525.656 580.656)" fill="#000">
                <tspan font-family="Roboto" font-size="16" font-weight="400" x="130.887" y="15">DATP07, DATP10..12</tspan>
            </text>
        </g>
        <g>
            <path d="M784.688 46.5l24.687 48.105H795.82v327.29h13.555L784.687 470 760 421.895h13.555V94.605H760z" fill="#ffc0ff"/>
            <path d="M784.688 46.5l24.687 48.105H795.82v327.29h13.555L784.687 470 760 421.895h13.555V94.605H760z" stroke="#000" stroke-linecap="round" stroke-linejoin="round"/>
            <text transform="rotate(90 371.344 422.844)" fill="#000">
                <tspan font-family="Roboto" font-size="16" font-weight="400" x="164.363" y="15">DDTP09..14</tspan>
            </text>
        </g>
        <g>
            <path d="M938 474.25h-45c-6.627 0-12 5.373-12 12V508c0 6.627 5.373 12 12 12h45c6.627 0 12-5.373 12-12v-21.75c0-6.627-5.373-12-12-12z" fill="#40ffff"/>
            <path d="M938 474.25h-45c-6.627 0-12 5.373-12 12V508c0 6.627 5.373 12 12 12h45c6.627 0 12-5.373 12-12v-21.75c0-6.627-5.373-12-12-12z" stroke="#000" stroke-linecap="round" stroke-linejoin="round"/>
            <text transform="translate(886 487.625)" fill="#000">
                <tspan font-family="Roboto" font-size="16" font-weight="400" x="2.395" y="15">Voltage</tspan>
            </text>
        </g>
        <g>
            <path d="M726 46.5l26 48.105h-14.275v327.29H752L726 470l-26-48.105h14.275V94.605H700z" fill="#ffc0ff"/>
            <path d="M726 46.5l26 48.105h-14.275v327.29H752L726 470l-26-48.105h14.275V94.605H700z" stroke="#000" stroke-linecap="round" stroke-linejoin="round"/>
            <text transform="rotate(90 342 393.5)" fill="#000">
                <tspan font-family="Roboto" font-size="16" font-weight="400" x="166.789" y="15">RDTP00.31</tspan>
            </text>
        </g>
        <g>
            <path d="M863 474.25H659.125c-6.627 0-12 5.373-12 12V508c0 6.627 5.373 12 12 12H863c6.627 0 12-5.373 12-12v-21.75c0-6.627-5.373-12-12-12z" fill="#ff80ff"/>
            <path d="M863 474.25H659.125c-6.627 0-12 5.373-12 12V508c0 6.627 5.373 12 12 12H863c6.627 0 12-5.373 12-12v-21.75c0-6.627-5.373-12-12-12z" stroke="#000" stroke-linecap="round" stroke-linejoin="round"/>
            <text transform="translate(652.125 487.625)" fill="#000">
                <tspan font-family="Roboto" font-size="16" font-weight="400" x="86.414" y="15">Digital</tspan>
            </text>
        </g>
        <g>
            <path d="M993 280H827.25c-6.627 0-12 5.373-12 12v18c0 6.627 5.373 12 12 12H993c6.627 0 12-5.373 12-12v-18c0-6.627-5.373-12-12-12z" fill="#c0c0ff"/>
            <path d="M993 280H827.25c-6.627 0-12 5.373-12 12v18c0 6.627 5.373 12 12 12H993c6.627 0 12-5.373 12-12v-18c0-6.627-5.373-12-12-12z" stroke="#000" stroke-linecap="round" stroke-linejoin="round"/>
            <text transform="translate(820.25 289)" fill="#000">
                <tspan font-family="Roboto" font-size="20" font-weight="400" x="16.486" y="19">UART/TP Switch</tspan>
            </text>
        </g>
        <g>
            <path d="M845.375 49l25.875 50H855v131h16.25l-25.875 50-25.875-50h16.25V99H819.5z" fill="#ffc0ff"/>
            <path d="M845.375 49l25.875 50H855v131h16.25l-25.875 50-25.875-50h16.25V99H819.5z" stroke="#000" stroke-linecap="round" stroke-linejoin="round"/>
            <text transform="rotate(90 400.438 454.438)" fill="#000">
                <tspan font-family="Roboto" font-size="16" font-weight="400" x="68.117" y="15">DDTP15..16</tspan>
            </text>
        </g>
        <g>
            <path d="M905 50h18.42v180H940l-25.79 50-25.79-50H905z" fill="#ffffc0"/>
            <path d="M905 50h18.42v180H940l-25.79 50-25.79-50H905z" stroke="#000" stroke-linecap="round" stroke-linejoin="round"/>
            <text transform="rotate(90 434.355 489.355)" fill="#000">
                <tspan font-family="Roboto" font-size="16" font-weight="400" x="68.121" y="15">DATP08..09</tspan>
            </text>
        </g>
        <g>
            <path d="M973.949 50L1000 98.105h-14.303v133.79H1000L973.949 280l-26.052-48.105h14.304V98.105h-14.304z" fill="#c0ffc0"/>
            <path d="M973.949 50L1000 98.105h-14.303v133.79H1000L973.949 280l-26.052-48.105h14.304V98.105h-14.304z" stroke="#000" stroke-linecap="round" stroke-linejoin="round"/>
            <text transform="rotate(90 464.224 519.224)" fill="#000">
                <tspan font-family="Roboto" font-size="16" font-weight="400" x="85.801" y="15">UART0</tspan>
            </text>
        </g>
        <g>
            <path d="M845.375 326L875 376h-20v44h20l-29.625 50-29.625-50h20v-44h-20z" fill="#ffc0ff"/>
            <path d="M845.375 326L875 376h-20v44h20l-29.625 50-29.625-50h20v-44h-20z" stroke="#000" stroke-linecap="round" stroke-linejoin="round"/>
            <text transform="rotate(90 261.938 592.938)" fill="#000">
                <tspan font-family="Roboto" font-size="16" font-weight="400" x="24.617" y="15">DDTP15..16</tspan>
            </text>
        </g>
        <g>
            <path d="M906 322.75h19V420h17.25l-26.75 50-26.75-50H906z" fill="#ffffc0"/>
            <path d="M906 322.75h19V420h17.25l-26.75 50-26.75-50H906z" stroke="#000" stroke-linecap="round" stroke-linejoin="round"/>
            <text transform="rotate(90 298.625 626.375)" fill="#000">
                <tspan font-family="Roboto" font-size="16" font-weight="400" x="26.746" y="15">DATP08..09</tspan>
            </text>
        </g>
        <g>
            <path d="M1048 474.25h-82.375c-6.627 0-12 5.373-12 12V508c0 6.627 5.373 12 12 12H1048c6.627 0 12-5.373 12-12v-21.75c0-6.627-5.373-12-12-12z" fill="#40ff40"/>
            <path d="M1048 474.25h-82.375c-6.627 0-12 5.373-12 12V508c0 6.627 5.373 12 12 12H1048c6.627 0 12-5.373 12-12v-21.75c0-6.627-5.373-12-12-12z" stroke="#000" stroke-linecap="round" stroke-linejoin="round"/>
            <text transform="translate(958.625 487.625)" fill="#000">
                <tspan font-family="Roboto" font-size="16" font-weight="400" x="10.996" y="15">UART(SPI)</tspan>
            </text>
        </g>
        <g>
            <path d="M973.949 324l27.625 50H985v46h16.574l-27.625 50-27.625-50h16.573v-46h-16.573z" fill="#c0ffc0"/>
            <path d="M973.949 324l27.625 50H985v46h16.574l-27.625 50-27.625-50h16.573v-46h-16.573z" stroke="#000" stroke-linecap="round" stroke-linejoin="round"/>
            <text transform="rotate(90 327.224 656.224)" fill="#000">
                <tspan font-family="Roboto" font-size="16" font-weight="400" x="43.801" y="15">UART0</tspan>
            </text>
        </g>
        <g>
            <path d="M1033.107 50L1060 100h-15v320h15l-26.893 50-26.893-50h15V100h-15z" fill="#c0ffc0"/>
            <path d="M1033.107 50L1060 100h-15v320h15l-26.893 50-26.893-50h15V100h-15z" stroke="#000" stroke-linecap="round" stroke-linejoin="round"/>
            <text transform="rotate(90 493.803 548.803)" fill="#000">
                <tspan font-family="Roboto" font-size="16" font-weight="400" x="180.801" y="15">UART1</tspan>
            </text>
        </g>
        <g>
            <path d="M1118 474.25h-42.375c-6.627 0-12 5.373-12 12V508c0 6.627 5.373 12 12 12H1118c6.627 0 12-5.373 12-12v-21.75c0-6.627-5.373-12-12-12z" fill="#40ffff"/>
            <path d="M1118 474.25h-42.375c-6.627 0-12 5.373-12 12V508c0 6.627 5.373 12 12 12H1118c6.627 0 12-5.373 12-12v-21.75c0-6.627-5.373-12-12-12z" stroke="#000" stroke-linecap="round" stroke-linejoin="round"/>
            <text transform="translate(1068.625 487.625)" fill="#000">
                <tspan font-family="Roboto" font-size="16" font-weight="400" x="1.082" y="15">Voltage</tspan>
            </text>
        </g>
        <g>
            <path d="M1251.813 50l24.624 50H1260v320h16.438l-24.626 50-24.624-50h16.437V100h-16.438z" fill="#c0ffc0"/>
            <path d="M1251.813 50l24.624 50H1260v320h16.438l-24.626 50-24.624-50h16.437V100h-16.438z" stroke="#000" stroke-linecap="round" stroke-linejoin="round"/>
            <text transform="rotate(90 603.156 658.156)" fill="#000">
                <tspan font-family="Roboto" font-size="16" font-weight="400" x="187.91" y="15">SWD</tspan>
            </text>
        </g>
        <g>
            <path d="M1311.813 50l24.812 50H1320v320h16.625l-24.813 50L1287 420h16.625V100H1287z" fill="#c0ffc0"/>
            <path d="M1311.813 50l24.812 50H1320v320h16.625l-24.813 50L1287 420h16.625V100H1287z" stroke="#000" stroke-linecap="round" stroke-linejoin="round"/>
            <text transform="rotate(90 633.156 688.156)" fill="#000">
                <tspan font-family="Roboto" font-size="16" font-weight="400" x="185.496" y="15">JTAG</tspan>
            </text>
        </g>
        <g>
            <path d="M1168.533 50h17.934v380h12.158l-21.125 40-21.125-40h12.158z" fill="#ffc0ff"/>
            <path d="M1168.533 50h17.934v380h12.158l-21.125 40-21.125-40h12.158z" stroke="#000" stroke-linecap="round" stroke-linejoin="round"/>
            <text transform="rotate(90 566 621)" fill="#000">
                <tspan font-family="Roboto" font-size="16" font-weight="400" x="177.277" y="15">CLK0..1</tspan>
            </text>
        </g>
        <g>
            <path d="M1268 474.25h-32.375c-6.627 0-12 5.373-12 12V508c0 6.627 5.373 12 12 12H1268c6.627 0 12-5.373 12-12v-21.75c0-6.627-5.373-12-12-12z" fill="#40ff40"/>
            <path d="M1268 474.25h-32.375c-6.627 0-12 5.373-12 12V508c0 6.627 5.373 12 12 12H1268c6.627 0 12-5.373 12-12v-21.75c0-6.627-5.373-12-12-12z" stroke="#000" stroke-linecap="round" stroke-linejoin="round"/>
            <text transform="translate(1228.625 487.625)" fill="#000">
                <tspan font-family="Roboto" font-size="16" font-weight="400" x="6.098" y="15">SWD</tspan>
            </text>
        </g>
        <g>
            <path d="M1328 474.25h-32.375c-6.627 0-12 5.373-12 12V508c0 6.627 5.373 12 12 12H1328c6.627 0 12-5.373 12-12v-21.75c0-6.627-5.373-12-12-12z" fill="#40ff40"/>
            <path d="M1328 474.25h-32.375c-6.627 0-12 5.373-12 12V508c0 6.627 5.373 12 12 12H1328c6.627 0 12-5.373 12-12v-21.75c0-6.627-5.373-12-12-12z" stroke="#000" stroke-linecap="round" stroke-linejoin="round"/>
            <text transform="translate(1288.625 487.625)" fill="#000">
                <tspan font-family="Roboto" font-size="16" font-weight="400" x="3.684" y="15">JTAG</tspan>
            </text>
        </g>
        <g>
            <path d="M1388 474.25h-32.375c-6.627 0-12 5.373-12 12V508c0 6.627 5.373 12 12 12H1388c6.627 0 12-5.373 12-12v-21.75c0-6.627-5.373-12-12-12z" fill="#40ff40"/>
            <path d="M1388 474.25h-32.375c-6.627 0-12 5.373-12 12V508c0 6.627 5.373 12 12 12H1388c6.627 0 12-5.373 12-12v-21.75c0-6.627-5.373-12-12-12z" stroke="#000" stroke-linecap="round" stroke-linejoin="round"/>
            <text transform="translate(1348.625 487.625)" fill="#000">
                <tspan font-family="Roboto" font-size="16" font-weight="400" x="7.059" y="15">CAN</tspan>
            </text>
        </g>
        <g>
            <path d="M1371.563 50l21.562 49.093H1380V420h13.125l-21.563 49.093L1350 420h13.125V99.093H1350z" fill="#c0ffc0"/>
            <path d="M1371.563 50l21.562 49.093H1380V420h13.125l-21.563 49.093L1350 420h13.125V99.093H1350z" stroke="#000" stroke-linecap="round" stroke-linejoin="round"/>
            <text transform="rotate(90 663.031 718.031)" fill="#000">
                <tspan font-family="Roboto" font-size="16" font-weight="400" x="188.417" y="15">CAN</tspan>
            </text>
        </g>
        <g>
            <path d="M1208 474.25h-62.375c-6.627 0-12 5.373-12 12V508c0 6.627 5.373 12 12 12H1208c6.627 0 12-5.373 12-12v-21.75c0-6.627-5.373-12-12-12z" fill="#ff80ff"/>
            <path d="M1208 474.25h-62.375c-6.627 0-12 5.373-12 12V508c0 6.627 5.373 12 12 12H1208c6.627 0 12-5.373 12-12v-21.75c0-6.627-5.373-12-12-12z" stroke="#000" stroke-linecap="round" stroke-linejoin="round"/>
            <text transform="translate(1138.625 487.625)" fill="#000">
                <tspan font-family="Roboto" font-size="16" font-weight="400" x="1.414" y="15">Frequency</tspan>
            </text>
        </g>
    </g>
</svg>
