<svg xmlns="http://www.w3.org/2000/svg" height="108.314" width="134.011">
    <text transform="matrix(1.6764 0 0 1.86267 111.234 107.314)" font-size="5.669" font-family="Roboto">
        <tspan x="0 3.4032884 4.8217502 8.5056696 9.9241314" y="0">PIN 1</tspan>
    </text>
    <text transform="matrix(1.6764 0 0 1.86267 .267 106.597)" font-size="5.669" font-family="Roboto">
        <tspan x="0 3.4032884 4.8217502 8.5056696 9.9241314" y="0">PIN 2</tspan>
    </text>
    <text transform="matrix(1.6764 0 0 1.86267 111.497 9.247)" font-size="5.669" font-family="Roboto">
        <tspan x="0 3.4032884 4.8217502 8.5056696 9.9241314" y="0">PIN 3</tspan>
    </text>
    <text transform="matrix(1.6764 0 0 1.86267 .267 8.56)" font-size="5.669" font-family="Roboto">
        <tspan x="0 3.4032884 4.8217502 8.5056696 9.9241314" y="0">PIN 4</tspan>
    </text>
    <path d="M24.726 102.8l28.665-36.042M53.39 66.758l-3.661 6.746M49.729 73.504l-2.087-1.66M47.642 71.845l5.749-5.087M49.662 73.45l.3-.376M49.662 73.45l.3-.376M49.512 73.331l.977-1.228M49.362 73.212l1.655-2.081M49.211 73.092l2.333-2.933M49.061 72.973l3.01-3.786M48.91 72.853l3.69-4.637M48.76 72.734l4.367-5.49M47.709 71.897l.3-.376M47.709 71.897l.3-.376M47.859 72.017l.977-1.23M48.01 72.136l1.654-2.08M48.16 72.256l2.333-2.933M48.31 72.375l3.01-3.785M48.46 72.495l3.689-4.638M48.61 72.614l4.367-5.49M109.405 103.516l-28.863-36.98M80.542 66.536l5.702 5.139M86.244 71.675l-2.102 1.64M84.142 73.315l-3.6-6.78M86.177 71.727l-.296-.38M86.177 71.727l-.296-.38M86.025 71.845l-.966-1.238M85.874 71.963l-1.636-2.096M85.723 72.081l-2.306-2.954M85.571 72.2l-2.976-3.813M85.42 72.317l-3.646-4.67M85.269 72.436l-4.316-5.53M84.209 73.263l-.296-.38M84.209 73.263l-.296-.38M84.36 73.145l-.966-1.238M84.512 73.026l-1.636-2.096M84.663 72.908l-2.306-2.954M84.815 72.79l-2.976-3.813M84.966 72.672l-3.646-4.671M85.117 72.554l-4.316-5.53M23.187 10.77l28.27 33.797M51.456 44.567l-5.872-4.943M45.584 39.624l2.045-1.71M47.629 37.914l3.827 6.653M45.649 39.57l.309.37M45.649 39.57l.309.37M45.796 39.447l1.008 1.204M45.944 39.324l1.706 2.04M46.09 39.2l2.405 2.875M46.238 39.077l3.103 3.71M46.385 38.954l3.802 4.545M46.533 38.83l4.5 5.381M47.564 37.969l.308.369M47.564 37.969l.308.369M47.416 38.092l1.008 1.204M47.269 38.215l1.706 2.04M47.122 38.338l2.404 2.875M46.975 38.461l3.103 3.71M46.827 38.584l3.802 4.546M46.68 38.708l4.5 5.38M110.643 5.579L82.385 44.567M82.385 44.567l3.356-6.902M85.741 37.665l2.159 1.564M87.9 39.23l-5.515 5.337M85.81 37.715l-.282.39M85.81 37.715l-.282.39M85.965 37.827l-.921 1.272M86.12 37.94l-1.56 2.153M86.276 38.053l-2.2 3.034M86.432 38.165l-2.839 3.917M86.587 38.278l-3.477 4.798M86.743 38.39l-4.117 5.68M87.831 39.18l-.282.389M87.831 39.18l-.282.389M87.676 39.067l-.922 1.271M87.52 38.954l-1.56 2.153M87.365 38.841l-2.2 3.035M87.21 38.729l-2.84 3.916M87.054 38.616l-3.478 4.798M86.898 38.503l-4.116 5.68M68.778 68.378l-.314.315M78.83 68.693H68.464M78.83 68.693l-.13-.315M78.7 68.378h-9.922M80.485 58.74v4.82M80.485 63.56h-.737M79.748 63.56v1.133M79.748 64.693h-.765M77.849 65.827l1.134-1.134M77.849 65.827h-4.535M72.18 64.693l1.134 1.134M71.414 64.693h.766M71.414 63.56v1.133M70.677 63.56h.737M70.677 58.74v4.82M71.414 58.74h-.737M71.414 57.323v1.418M71.414 57.323h8.334M79.748 57.323v1.418M79.748 58.74h.737M82.385 54.772v9.921M68.778 54.772h13.607M68.778 68.378V54.772M82.385 64.693l-3.686 3.685M55.172 47.685l1.134 1.134M54.407 47.685h.765M54.407 46.552v1.133M53.67 46.552h.737M53.67 41.733v4.819M54.407 41.733h-.738M62.74 40.315v1.418M63.477 41.733v4.819M63.477 46.552h-.737M62.74 46.552v1.133M62.74 47.685h-.765M60.841 48.82l1.134-1.135M51.77 37.764v13.607M51.77 51.37h9.922M61.692 51.37l3.685-3.685M65.377 37.764v9.921M65.377 37.764H51.77M60.841 48.82h-4.535M54.407 40.315v1.418M54.407 40.315h8.333M62.74 41.733h.737M72.463 51.37l-.13.315M82.699 51.685H72.333M82.699 51.685l-.314-.314M82.385 51.37h-9.922M82.385 54.772l.314-.314M68.464 54.458h14.235M68.778 54.772l-.314-.314M65.69 37.45l-.313.314M51.456 37.45h14.235M51.456 37.45l.314.314M65.69 54.458l-.313.314M51.456 54.458h14.235M51.77 54.772l-.314-.314M65.377 54.772H51.77M54.407 57.323h8.333M62.74 57.323v1.418M62.74 58.74h.737M63.477 63.56h-.737M62.74 64.693h-.765M60.841 65.827h-4.535M55.172 64.693l1.134 1.134M54.407 64.693h.765M54.407 63.56v1.133M53.67 63.56h.737M53.67 58.74v4.82M54.407 58.74h-.738M54.407 57.323v1.418M65.377 68.378h-9.922M65.377 54.772v13.606M51.77 54.772v9.921M51.77 64.693l3.685 3.685M60.841 65.827l1.134-1.134M63.477 58.74v4.82M62.74 63.56v1.133M65.377 47.685l.314.13M65.69 37.45v10.366M51.77 51.37l-.314.315M61.822 51.685H51.456M61.822 51.685l-.13-.314M51.456 64.823V54.458M51.456 64.823l.314-.13M68.464 47.816l.314-.13M72.333 51.685l-3.869-3.87M72.463 51.37l-3.685-3.685M82.699 37.45v14.235M82.385 37.764l.314-.314M82.385 37.764v13.607M65.69 68.693l-.313-.315M65.69 54.458v14.235M82.699 64.823l-3.87 3.87M82.385 64.693l.314.13M82.699 54.458v10.365M68.464 68.693V54.458M71.414 40.315v1.418M77.849 48.82h-4.535M72.18 47.685l1.134 1.134M71.414 47.685h.766M68.778 37.764h13.607M68.778 47.685v-9.92M70.677 41.733v4.819M71.414 40.315h8.334M80.485 46.552h-.737M79.748 47.685h-.765M79.748 46.552v1.133M80.485 41.733v4.819M79.748 41.733h.737M79.748 40.315v1.418M77.849 48.82l1.134-1.135M71.414 46.552v1.133M70.677 46.552h.737M71.414 41.733h-.737M68.464 37.45h14.235M68.464 37.45l.314.314M68.464 47.816V37.45M51.456 51.685V37.45M55.325 68.693l-3.869-3.87M55.455 68.378l-.13.315M65.69 47.816l-3.868 3.869M65.69 68.693H55.326" fill="none" stroke="#000" stroke-width=".6799982999999999" stroke-linecap="round" stroke-miterlimit="10"/>
    <path d="M62.4 29.26h9.355" fill="none" stroke="#000" stroke-width=".5666652499999999" stroke-linecap="round" stroke-miterlimit="10"/>
    <path d="M78.983 40.315v1.418M78.983 41.733h.765M78.983 46.552v1.133M78.983 46.552h.765M78.983 63.56v1.133M78.983 63.56h.765M72.18 57.323v1.418M72.18 58.74h-.766M55.172 57.323v1.418M55.172 58.74h-.765M78.983 57.323v1.418M78.983 58.74h.765M55.172 40.315v1.418M55.172 41.733h-.765M72.18 63.56v1.133M71.414 63.56h.766M61.975 40.315v1.418M61.975 41.733h.765M72.18 40.315v1.418M72.18 41.733h-.766M61.975 46.552v1.133M61.975 46.552h.765M61.975 63.56v1.133M61.975 63.56h.765M55.172 46.552v1.133M54.407 46.552h.765M72.18 46.552v1.133M71.414 46.552h.766M55.172 63.56v1.133M54.407 63.56h.765M61.975 57.323v1.418M61.975 58.74h.765M62.4 29.862v-.602M71.755 29.862v-.602M72.18 58.74v4.82M55.172 58.74v4.82M61.975 41.733v4.819M78.983 58.74v4.82M55.172 41.733v4.819M72.18 41.733v4.819M61.975 58.74v4.82M78.983 41.733v4.819M86.495 33.512v38.835M47.66 33.512v38.835M47.66 72.347h38.835M47.66 33.512h38.835M86.495 67.811h.045M86.54 67.811V37.764M47.615 69.229V36.63M47.66 69.229h-.045M71.755 33.512v-3.65M62.4 33.512v-3.65M68.353 72.347v.045M82.81 72.392H68.353" fill="none" stroke="#000" stroke-width=".6799982999999999" stroke-linecap="round" stroke-miterlimit="10"/>
</svg>
